<mxfile host="app.diagrams.net" agent="Mozilla/5.0 (X11; Ubuntu; Linux x86_64; rv:140.0) Gecko/20100101 Firefox/140.0" version="28.0.6">
  <diagram name="Seite-1" id="nBTSGkH3F8BrTgD0LYC1">
    <mxGraphModel dx="2466" dy="1125" grid="1" gridSize="10" guides="1" tooltips="1" connect="1" arrows="1" fold="1" page="0" pageScale="1" pageWidth="583" pageHeight="827" math="0" shadow="0">
      <root>
        <mxCell id="0" />
        <mxCell id="1" parent="0" />
        <mxCell id="npQyyVZ0TT0oIkMUmZ8_-8" value="" style="ellipse;whiteSpace=wrap;html=1;" parent="1" vertex="1">
          <mxGeometry x="-230" y="260" width="260" height="180" as="geometry" />
        </mxCell>
        <mxCell id="npQyyVZ0TT0oIkMUmZ8_-3" value="" style="endArrow=none;dashed=1;html=1;rounded=0;" parent="1" edge="1">
          <mxGeometry width="50" height="50" relative="1" as="geometry">
            <mxPoint x="460" y="460" as="sourcePoint" />
            <mxPoint x="460" y="200" as="targetPoint" />
          </mxGeometry>
        </mxCell>
        <mxCell id="npQyyVZ0TT0oIkMUmZ8_-4" value="&lt;font style=&quot;font-size: 20px;&quot;&gt;Edge Tier&lt;/font&gt;" style="text;html=1;align=center;verticalAlign=middle;whiteSpace=wrap;rounded=0;" parent="1" vertex="1">
          <mxGeometry x="-180" y="200" width="90" height="30" as="geometry" />
        </mxCell>
        <mxCell id="npQyyVZ0TT0oIkMUmZ8_-5" value="&lt;font style=&quot;font-size: 20px;&quot;&gt;Enterprise&lt;span style=&quot;background-color: transparent; color: light-dark(rgb(0, 0, 0), rgb(255, 255, 255));&quot;&gt;&amp;nbsp;Tier&lt;/span&gt;&lt;/font&gt;" style="text;html=1;align=center;verticalAlign=middle;whiteSpace=wrap;rounded=0;" parent="1" vertex="1">
          <mxGeometry x="550" y="200" width="90" height="30" as="geometry" />
        </mxCell>
        <mxCell id="npQyyVZ0TT0oIkMUmZ8_-6" value="&lt;font style=&quot;font-size: 20px;&quot;&gt;Platform Tier&lt;/font&gt;" style="text;html=1;align=center;verticalAlign=middle;whiteSpace=wrap;rounded=0;" parent="1" vertex="1">
          <mxGeometry x="190" y="200" width="130" height="30" as="geometry" />
        </mxCell>
        <mxCell id="npQyyVZ0TT0oIkMUmZ8_-10" value="Sewing&lt;br&gt;Machine" style="rounded=0;whiteSpace=wrap;html=1;" parent="1" vertex="1">
          <mxGeometry x="-260" y="300" width="60" height="60" as="geometry" />
        </mxCell>
        <mxCell id="npQyyVZ0TT0oIkMUmZ8_-13" value="" style="endArrow=classic;html=1;rounded=0;exitX=1;exitY=0.5;exitDx=0;exitDy=0;strokeColor=default;curved=0;entryX=0;entryY=0.5;entryDx=0;entryDy=0;" parent="1" source="npQyyVZ0TT0oIkMUmZ8_-10" target="Jh0epuGIQuc-Vuj4WaSM-6" edge="1">
          <mxGeometry width="50" height="50" relative="1" as="geometry">
            <mxPoint x="270" y="410" as="sourcePoint" />
            <mxPoint y="360" as="targetPoint" />
          </mxGeometry>
        </mxCell>
        <mxCell id="npQyyVZ0TT0oIkMUmZ8_-15" value="Data Preperation" style="rounded=0;whiteSpace=wrap;html=1;" parent="1" vertex="1">
          <mxGeometry x="20" y="315" width="130" height="70" as="geometry" />
        </mxCell>
        <mxCell id="npQyyVZ0TT0oIkMUmZ8_-16" value="Dashboard" style="rounded=0;whiteSpace=wrap;html=1;" parent="1" vertex="1">
          <mxGeometry x="550" y="320" width="120" height="60" as="geometry" />
        </mxCell>
        <mxCell id="npQyyVZ0TT0oIkMUmZ8_-19" value="" style="endArrow=classic;html=1;rounded=0;exitX=1;exitY=0.5;exitDx=0;exitDy=0;entryX=0;entryY=0.5;entryDx=0;entryDy=0;strokeColor=default;curved=0;dashed=1;" parent="1" source="Jh0epuGIQuc-Vuj4WaSM-6" target="npQyyVZ0TT0oIkMUmZ8_-15" edge="1">
          <mxGeometry width="50" height="50" relative="1" as="geometry">
            <mxPoint x="50" y="350" as="sourcePoint" />
            <mxPoint x="10" y="360" as="targetPoint" />
          </mxGeometry>
        </mxCell>
        <mxCell id="56s4xDqAKh16l2WtE1h6-3" value="Database" style="rounded=0;whiteSpace=wrap;html=1;" parent="1" vertex="1">
          <mxGeometry x="295" y="320" width="120" height="60" as="geometry" />
        </mxCell>
        <mxCell id="56s4xDqAKh16l2WtE1h6-4" value="" style="endArrow=classic;html=1;rounded=0;entryX=0;entryY=0.5;entryDx=0;entryDy=0;exitX=1;exitY=0.5;exitDx=0;exitDy=0;dashed=1;" parent="1" source="npQyyVZ0TT0oIkMUmZ8_-15" target="56s4xDqAKh16l2WtE1h6-3" edge="1">
          <mxGeometry width="50" height="50" relative="1" as="geometry">
            <mxPoint x="180" y="380" as="sourcePoint" />
            <mxPoint x="230" y="330" as="targetPoint" />
          </mxGeometry>
        </mxCell>
        <mxCell id="56s4xDqAKh16l2WtE1h6-5" value="" style="endArrow=classic;html=1;rounded=0;entryX=0;entryY=0.5;entryDx=0;entryDy=0;exitX=1;exitY=0.5;exitDx=0;exitDy=0;dashed=1;" parent="1" source="56s4xDqAKh16l2WtE1h6-3" target="npQyyVZ0TT0oIkMUmZ8_-16" edge="1">
          <mxGeometry width="50" height="50" relative="1" as="geometry">
            <mxPoint x="180" y="380" as="sourcePoint" />
            <mxPoint x="230" y="330" as="targetPoint" />
          </mxGeometry>
        </mxCell>
        <mxCell id="Jh0epuGIQuc-Vuj4WaSM-1" value="Shopfloor Network" style="text;html=1;align=center;verticalAlign=middle;whiteSpace=wrap;rounded=0;" vertex="1" parent="1">
          <mxGeometry x="-140" y="390" width="60" height="30" as="geometry" />
        </mxCell>
        <mxCell id="Jh0epuGIQuc-Vuj4WaSM-2" value="" style="endArrow=none;dashed=1;html=1;rounded=0;" edge="1" parent="1">
          <mxGeometry width="50" height="50" relative="1" as="geometry">
            <mxPoint x="30" y="460" as="sourcePoint" />
            <mxPoint x="30" y="200" as="targetPoint" />
          </mxGeometry>
        </mxCell>
        <mxCell id="Jh0epuGIQuc-Vuj4WaSM-3" value="&lt;span style=&quot;color: light-dark(rgb(0, 0, 0), rgb(204, 0, 0));&quot;&gt;Node-RED&lt;/span&gt;" style="text;html=1;align=center;verticalAlign=middle;whiteSpace=wrap;rounded=0;" vertex="1" parent="1">
          <mxGeometry x="55" y="355" width="60" height="30" as="geometry" />
        </mxCell>
        <mxCell id="Jh0epuGIQuc-Vuj4WaSM-4" value="&lt;span style=&quot;color: light-dark(rgb(0, 0, 0), rgb(19, 154, 197));&quot;&gt;InfluxDB&lt;/span&gt;" style="text;html=1;align=center;verticalAlign=middle;whiteSpace=wrap;rounded=0;" vertex="1" parent="1">
          <mxGeometry x="325" y="350" width="60" height="30" as="geometry" />
        </mxCell>
        <mxCell id="Jh0epuGIQuc-Vuj4WaSM-5" value="&lt;span style=&quot;color: light-dark(rgb(0, 0, 0), rgb(255, 128, 0));&quot;&gt;Grafana&lt;/span&gt;" style="text;html=1;align=center;verticalAlign=middle;whiteSpace=wrap;rounded=0;" vertex="1" parent="1">
          <mxGeometry x="580" y="350" width="60" height="30" as="geometry" />
        </mxCell>
        <mxCell id="Jh0epuGIQuc-Vuj4WaSM-6" value="PLC" style="rounded=0;whiteSpace=wrap;html=1;" vertex="1" parent="1">
          <mxGeometry x="-120" y="300" width="60" height="60" as="geometry" />
        </mxCell>
      </root>
    </mxGraphModel>
  </diagram>
</mxfile>
